# xmcd CD database file
#
# Track frame offsets:
#	150
#	16886
#	34795
#	58438
#	81297
#	100622
#	118106
#	136291
#	157096
#	178417
#	195387
#
# Disc length: 2743 seconds
#
# Revision: 1
# Processed by: cddbd v1.4PL0 Copyright (c) Steve Scherf et al.
# Submitted via: CDex 1.40Release
#
DISCID=960ab50b
DTITLE=Ulf Christiansson - Himmelriket är nära
DYEAR=2001
DGENRE=Country
TTITLE0=Oh hur saligt
TTITLE1=Jag har beslutat
TTITLE2=En mäktig våg
TTITLE3=Närmare Gud till dig
TTITLE4=Namnet Jesus
TTITLE5=Saliga Visshet
TTITLE6=Ovan Där
TTITLE7=Härlig är jorden
TTITLE8=Var är mitt vilsna barn
TTITLE9=Halleluja, sjung om Jesus
TTITLE10=Jesus från Nasaret
EXTD=YEAR: 2001 ID3G: 2
EXTT0=
EXTT1=
EXTT2=
EXTT3=
EXTT4=
EXTT5=
EXTT6=
EXTT7=
EXTT8=
EXTT9=
EXTT10=
PLAYORDER=
